<?xml version="1.0" encoding="UTF-8" standalone="no"?>
<!-- Created with Inkscape (http://www.inkscape.org/) -->

<svg
   width="1024"
   height="1024"
   viewBox="0 0 270.93333 270.93333"
   version="1.1"
   id="svg1"
   inkscape:version="1.4 (1:1.4+202410161351+e7c3feb100)"
   sodipodi:docname="metronome.svg"
   inkscape:export-filename="metronome.png"
   inkscape:export-xdpi="96"
   inkscape:export-ydpi="96"
   xmlns:inkscape="http://www.inkscape.org/namespaces/inkscape"
   xmlns:sodipodi="http://sodipodi.sourceforge.net/DTD/sodipodi-0.dtd"
   xmlns="http://www.w3.org/2000/svg"
   xmlns:svg="http://www.w3.org/2000/svg">
  <sodipodi:namedview
     id="namedview1"
     pagecolor="#222831"
     bordercolor="#000000"
     borderopacity="0.25"
     inkscape:showpageshadow="2"
     inkscape:pageopacity="0.0"
     inkscape:pagecheckerboard="0"
     inkscape:deskcolor="#d1d1d1"
     inkscape:document-units="mm"
     inkscape:zoom="0.50772211"
     inkscape:cx="372.25088"
     inkscape:cy="797.68045"
     inkscape:window-width="1233"
     inkscape:window-height="1008"
     inkscape:window-x="0"
     inkscape:window-y="0"
     inkscape:window-maximized="0"
     inkscape:current-layer="layer1"
     inkscape:export-bgcolor="#222831ff" />
  <defs
     id="defs1" />
  <g
     inkscape:label="Layer 1"
     inkscape:groupmode="layer"
     id="layer1">
    <g
       id="g7"
       style="opacity:1;fill:#eeeeee;fill-opacity:1;stroke:#000000;stroke-width:0.856256"
       transform="matrix(1.0055111,0,0,1.3564535,29.887662,13.0075)">
      <path
         style="fill:#eeeeee;fill-opacity:1;stroke:none;stroke-width:0.856256;stroke-linecap:round;paint-order:markers stroke fill"
         d="m 60.59375,43.587891 -22,74.958989 h 76.10352 L 92.697266,43.587891 Z M 63.148437,47 h 26.994141 l 19.998052,68.13477 H 43.148437 Z"
         id="path1"
         transform="translate(28.354836,9.2121588)" />
      <path
         style="fill:#eeeeee;fill-opacity:1;stroke:none;stroke-width:0.856256;stroke-linecap:round;paint-order:markers stroke fill"
         d="m 74.498047,106.38672 a 1.705995,1.705995 0 0 0 -1.707031,1.70703 1.705995,1.705995 0 0 0 1.707031,1.70508 H 137.78125 L 137.125,107.5625 a 1.705995,1.705995 0 0 0 -1.67383,-1.10742 l 0.0508,-0.0684 z"
         id="path2" />
      <path
         style="fill:#eeeeee;fill-opacity:1;stroke:none;stroke-width:0.856256;stroke-linecap:round;paint-order:markers stroke fill"
         d="m 105,52.798828 a 1.705995,1.705995 0 0 0 -1.70508,1.707031 v 43.88086 A 1.705995,1.705995 0 0 0 105,100.0918 1.705995,1.705995 0 0 0 106.70508,98.386719 V 54.505859 A 1.705995,1.705995 0 0 0 105,52.798828 Z"
         id="path3" />
      <path
         style="fill:#eeeeee;fill-opacity:1;stroke-width:2.92154;stroke-linecap:round;paint-order:markers stroke fill"
         d="M 93.227045,88.436724 Z"
         id="path4" />
      <path
         style="fill:#eeeeee;fill-opacity:1;stroke:none;stroke-width:0.856256;stroke-linecap:round;paint-order:markers stroke fill"
         d="m 96.193359,86.974609 a 1.46216,1.46216 0 0 0 -1.460937,1.462891 1.46216,1.46216 0 0 0 1.460937,1.460937 h 17.613281 a 1.46216,1.46216 0 0 0 1.46094,-1.460937 1.46216,1.46216 0 0 0 -1.46094,-1.462891 z"
         id="path5" />
      <path
         style="fill:#eeeeee;fill-opacity:1;stroke:none;stroke-width:0.856256;stroke-linecap:round;paint-order:markers stroke fill"
         d="m 96.929687,71.208984 a 1.38322,1.38322 0 0 0 -1.382812,1.382813 1.38322,1.38322 0 0 0 1.382812,1.382812 h 16.140623 a 1.38322,1.38322 0 0 0 1.38282,-1.382812 1.38322,1.38322 0 0 0 -1.38282,-1.382813 z"
         id="path6" />
    </g>
  </g>
</svg>
